<svg xmlns="http://www.w3.org/2000/svg" viewBox="0 0 147.41 206.18"><defs><style>.cls-1{fill:none;}.cls-1,.cls-2{stroke:#000;stroke-linecap:round;stroke-linejoin:round;stroke-width:2.65px;}.cls-2{fill:#7dced0;}.cls-3{fill:#fff;}</style></defs><g id="Слой_2" data-name="Слой 2"><g id="Layer_1" data-name="Layer 1"><path class="cls-1" d="M84.71,90.82c-8.28,7.16.12,21.44-4.23,31.47C76.64,131.17,64.92,132.91,57.4,139c-10.83,8.73-11.41,24.7-17,37.44a48.79,48.79,0,0,1-39.1,28.44"/><path class="cls-2" d="M90.6,81.58C84,69.07,79.58,55.06,80.56,41s8.06-28.2,20.26-35.31S130.35.1,139.48,10.87c7.32,8.63,8.3,21.5,4.22,32.06s-12.54,18.94-22.13,24.94S101.24,77.75,90.6,81.58Z"/><path class="cls-2" d="M87.33,90.88l3.61.89a1.38,1.38,0,0,0,1,0,1.31,1.31,0,0,0,.46-1.19,18.44,18.44,0,0,0-1.85-8.29,19.81,19.81,0,0,0-9.81,6.3c-.29.34.26.75.7.86Z"/><circle class="cls-3" cx="127.83" cy="11.67" r="5.86"/></g></g></svg>