<svg xmlns="http://www.w3.org/2000/svg" viewBox="0 0 129.48 168.29"><defs><style>.cls-1{fill:none;}.cls-1,.cls-2{stroke:#000;stroke-linecap:round;stroke-linejoin:round;stroke-width:2.26px;}.cls-2{fill:#f26f79;}.cls-3{fill:#fff;}</style></defs><g id="Слой_2" data-name="Слой 2"><g id="Layer_1" data-name="Layer 1"><path class="cls-1" d="M79.46,75.94C81,83.45,76,91,69.64,95.25s-14,6-21.35,8.28S33.49,109,28.81,115c-4.37,5.65-5.68,13-6.49,20.13S21,149.58,17.91,156,8.24,167.82,1.13,167.09"/><path class="cls-2" d="M95.26,70.88c11-2.51,21.19-9.07,27.26-18.57S130.23,30.38,126,20,111.28,1.62,100,1.15A27.59,27.59,0,0,0,76.48,12.92c-4.17,6.16-5.6,13.85-5.33,21.29s2.11,14.71,4,21.91c1.42,5.46,3.33,11.51,8.32,14.15C87,72.15,91.34,71.78,95.26,70.88Z"/><path class="cls-2" d="M83.56,69.32l2,11.24-12-4.34Z"/><circle class="cls-3" cx="118.8" cy="25.27" r="5.01"/></g></g></svg>