<svg xmlns="http://www.w3.org/2000/svg" viewBox="0 0 129.45 177.13"><defs><style>.cls-1{fill:none;}.cls-1,.cls-2{stroke:#000;stroke-linecap:round;stroke-linejoin:round;stroke-width:2px;}.cls-2{fill:#fff456;}.cls-3{fill:#fff;}</style></defs><g id="Слой_2" data-name="Слой 2"><g id="Layer_1" data-name="Layer 1"><path class="cls-1" d="M72,72.11C64.65,77.64,61.59,87.2,60.1,96.29s-1.93,18.56-5.81,26.92c-4,8.56-11.17,15.1-18.19,21.41L1,176.13"/><path class="cls-2" d="M84.58,4.56c7.61-4.64,17.63-4.62,25.61-.65s13.9,11.55,16.62,20c2.14,6.69,2.37,14.18-.45,20.61-3.11,7.09-9.59,12.25-16.67,15.37S94.9,64.37,87.28,65.66c-4.23.72-9.19,1.22-12.22-1.81-2-2-2.56-5.09-3-7.93-1.37-9.27-2.74-18.69-1.38-28S76.58,9.43,84.58,4.56Z"/><path class="cls-2" d="M77.29,77.24c-1.08.58-2.38,0-3.42-.68C71.18,75,68.54,73.24,66,71.46c-.44-.31-.92-.69-.94-1.23s.55-1,1.08-1.36A33.22,33.22,0,0,1,75.83,65c1.43,3,2.88,6.19,2.74,9.53A3.13,3.13,0,0,1,77.29,77.24Z"/><circle class="cls-3" cx="117.05" cy="19.29" r="4.43"/></g></g></svg>